<svg height="472pt" viewBox="-44 0 472 472.09831" width="472pt" xmlns="http://www.w3.org/2000/svg"><path d="m320.0625 64.097656c-2.324219.003906-4.53125-1.003906-6.054688-2.757812-1.519531-1.75-2.203124-4.078125-1.875-6.378906 3.417969-19.699219 12.550782-37.964844 26.265626-52.519532 2.007812-2.078125 4.980468-2.914062 7.777343-2.179687 2.796875.730469 4.984375 2.914062 5.714844 5.710937s-.101563 5.773438-2.183594 7.78125c-11.261719 12.109375-18.804687 27.203125-21.726562 43.480469-.566407 3.9375-3.941407 6.863281-7.917969 6.863281zm0 0" fill="#898890"/><path d="m378.460938 168.097656 5.601562-64h-16c0 26.511719-21.492188 48-48 48-26.511719 0-48-21.488281-48-48h-176l-28.464844 40.65625 2.0625 23.34375zm0 0" fill="#e6e7e8"/><path d="m352.0625 152.097656c10.339844-.007812 20.394531-3.378906 28.65625-9.597656l3.34375-38.402344h-16c-.023438 20.324219-12.839844 38.433594-32 45.207032 5.132812 1.839843 10.542969 2.78125 16 2.792968zm0 0" fill="#e6e7e8"/><path d="m128.0625 104.097656h-32l-28.464844 40.65625 2.03125 23.34375h32l-2.03125-23.34375zm0 0" fill="#bcbec0"/><path d="m91.902344 424.097656h-.015625l4.175781 48h256l4.175781-48zm0 0" fill="#d1d3d4"/><path d="m91.902344 424.097656h-.015625l4.175781 48h32l-4.175781-48zm0 0" fill="#a7a9ac"/><path d="m378.460938 168.097656h-308.800782l22.257813 256h264.320312zm-170.398438 216-61.816406-16.566406 16.558594-61.816406 61.824218 16.566406zm16-135.421875 55.421875-32 32 55.421875-55.421875 32zm104 143.421875h-64v-64h64zm0 0" fill="#ffb655"/><path d="m69.660156 168.097656h-.03125l22.257813 256h32l-22.257813-256zm0 0" fill="#ee8700"/><path d="m224.058594 248.675781 55.425781-32 32 55.421875-55.425781 32zm0 0" fill="#e6e7e8"/><path d="m254.988281 244.675781 30.496094-17.601562-6-10.398438-55.421875 32 32 55.421875 18-10.398437-22-38.097657c-2.210938-3.824218-.898438-8.71875 2.925781-10.925781zm0 0" fill="#bcbec0"/><path d="m264.0625 328.097656h64v64h-64zm0 0" fill="#e6e7e8"/><path d="m264.0625 328.097656h24v64h-24zm0 0" fill="#bcbec0"/><path d="m368.0625 104.097656c0 26.511719-21.492188 48-48 48-26.511719 0-48-21.488281-48-48 0-26.507812 21.488281-48 48-48 26.507812 0 48 21.492188 48 48zm0 0" fill="#cd2a00"/><path d="m304.0625 104.097656c.019531-20.324218 12.835938-38.433594 32-45.207031-19.90625-7.113281-42.125-.371094-54.714844 16.609375s-12.589844 40.199219 0 57.179688c12.589844 16.980468 34.808594 23.726562 54.714844 16.609374-19.15625-6.773437-31.976562-24.871093-32-45.191406zm0 0" fill="#ab2300"/><path d="m146.242188 367.53125 16.566406-61.816406 61.820312 16.5625-16.566406 61.820312zm0 0" fill="#e6e7e8"/><path d="m172.308594 359.808594 12.886718-48.09375-22.398437-6-16.558594 61.816406 61.824219 16.566406 1.597656-6-31.695312-8.496094c-4.265625-1.144531-6.796875-5.527343-5.65625-9.792968zm0 0" fill="#bcbec0"/><path d="m79.390625 9.554688c-38.242187 6.738281-68.660156 35.851562-77.066406 73.761718s6.855469 77.152344 38.664062 99.421875l26.601563-37.984375 28.472656-40.65625 55.0625-78.640625c-20.84375-14.632812-46.660156-20.359375-71.734375-15.902343zm0 0" fill="#f9ed32"/><g fill="#ffdaaa"><path d="m120.0625 304.097656c-2.679688.027344-5.1875-1.296875-6.671875-3.527344-1.484375-2.226562-1.746094-5.050781-.691406-7.511718.40625-.96875.976562-1.863282 1.679687-2.640625 3.210938-2.960938 8.152344-2.960938 11.363282 0 .703124.777343 1.273437 1.671875 1.679687 2.640625 1.054687 2.460937.792969 5.285156-.691406 7.511718-1.484375 2.230469-3.992188 3.554688-6.667969 3.527344zm0 0"/><path d="m184.0625 272.097656c-2.679688.027344-5.1875-1.296875-6.671875-3.527344-1.484375-2.226562-1.746094-5.050781-.691406-7.511718.386719-.980469.957031-1.875 1.679687-2.640625 3.210938-2.960938 8.152344-2.960938 11.363282 0 .722656.765625 1.292968 1.660156 1.679687 2.640625 1.054687 2.460937.792969 5.285156-.691406 7.511718-1.484375 2.230469-3.992188 3.554688-6.667969 3.527344zm0 0"/><path d="m136.0625 232.097656c-2.148438.027344-4.207031-.839844-5.683594-2.398437-1.449218-1.507813-2.277344-3.507813-2.316406-5.601563.023438-2.117187.851562-4.148437 2.316406-5.679687.765625-.722657 1.664063-1.292969 2.640625-1.679688 1.429688-.636719 3.023438-.808593 4.554688-.480469.53125.074219 1.046875.238282 1.527343.480469.507813.175781.992188.417969 1.4375.71875l1.203126.960938c1.460937 1.535156 2.289062 3.5625 2.320312 5.679687-.03125 4.40625-3.597656 7.96875-8 8zm0 0"/><path d="m336.0625 224.097656c-2.128906.023438-4.175781-.8125-5.683594-2.320312-1.503906-1.503906-2.339844-3.550782-2.316406-5.679688 0-4.417968 3.578125-8 8-8 4.417969 0 8 3.582032 8 8 .019531 2.128906-.816406 4.175782-2.320312 5.679688-1.503907 1.507812-3.554688 2.34375-5.679688 2.320312zm0 0"/></g><path d="m67.628906 91.386719c-1.636718.003906-3.238281-.503907-4.574218-1.449219l-26.195313-18.34375c-3.324219-2.625-4.027344-7.386719-1.601563-10.859375 2.425782-3.472656 7.136719-4.453125 10.746094-2.234375l26.226563 18.351562c2.859375 2.003907 4.089843 5.632813 3.035156 8.960938-1.050781 3.332031-4.144531 5.59375-7.636719 5.589844zm0 0" fill="#ffcd00"/><path d="m108.933594 65.066406c-3.875-.007812-7.191406-2.792968-7.863282-6.609375l-5.554687-31.511719c-.625-2.867187.371094-5.847656 2.59375-7.765624 2.222656-1.917969 5.316406-2.460938 8.0625-1.421876 2.742187 1.042969 4.695313 3.503907 5.089844 6.414063l5.597656 31.503906c.765625 4.347657-2.136719 8.496094-6.488281 9.261719-.472656.089844-.957032.132812-1.4375.128906zm0 0" fill="#ffcd00"/><path d="m25.515625 144.769531c-4.132813-.019531-7.570313-3.1875-7.929687-7.304687-.355469-4.117188 2.480468-7.832032 6.546874-8.566406l31.503907-5.601563c4.300781-.660156 8.339843 2.230469 9.097656 6.515625s-2.046875 8.386719-6.3125 9.238281l-31.511719 5.550781c-.460937.101563-.925781.15625-1.394531.167969zm0 0" fill="#ffcd00"/></svg>