<?xml version="1.0" encoding="iso-8859-1"?>
<!-- Generator: Adobe Illustrator 19.0.0, SVG Export Plug-In . SVG Version: 6.00 Build 0)  -->
<svg version="1.1" id="Capa_1" xmlns="http://www.w3.org/2000/svg" xmlns:xlink="http://www.w3.org/1999/xlink" x="0px" y="0px"
	 viewBox="0 0 469.334 469.334" style="enable-background:new 0 0 469.334 469.334;" xml:space="preserve">
<path style="fill:#F57600;" d="M42.667,469.334h234.667c23.564,0,42.667-19.103,42.667-42.667V138.073
	c0-6.624-1.542-13.157-4.504-19.081l-38.162-76.324C277.334,19.103,258.231,0,234.667,0H85.334C61.77,0,42.667,19.103,42.667,42.667
	L4.505,118.991C1.543,124.916,0,131.449,0,138.073v288.594C0,450.231,19.103,469.334,42.667,469.334
	C42.667,469.334,42.667,469.334,42.667,469.334L42.667,469.334z"/>
<path style="fill:#DC5C00;" d="M234.662,127.997L234.662,127.997c23.563,0,42.665,19.103,42.665,42.667V405.33
	c0,23.564-19.102,42.667-42.665,42.667l0,0c-23.563,0-42.665-19.103-42.665-42.667V170.664
	C191.997,147.1,211.099,127.997,234.662,127.997z"/>
<path style="fill:#F7B236;" d="M170.667,469.334h-128C19.103,469.334,0,450.231,0,426.667V138.073
	c0-6.624,1.542-13.157,4.504-19.081l38.162-76.324C42.667,19.103,61.77,0,85.334,0c0,0,0,0,0,0h128C236.898,0,256,19.103,256,42.667
	l-38.162,76.325c-2.962,5.924-4.504,12.457-4.504,19.081v288.594C213.334,450.231,194.231,469.334,170.667,469.334L170.667,469.334
	L170.667,469.334z"/>
<path style="fill:#F8C746;" d="M199.777,128H35.492c-12.115,0-21.935-9.821-21.935-21.935c0-3.405,0.793-6.764,2.316-9.81
	l20.731-41.463c3.716-7.431,11.311-12.126,19.619-12.126h164.285c12.115,0,21.935,9.821,21.935,21.935
	c0,3.405-0.793,6.764-2.316,9.81l-20.731,41.463C215.681,123.306,208.085,128,199.777,128L199.777,128z"/>
<path style="fill:#F9CA75;" d="M21.333,106.667h170.664c11.782,0,21.333,9.551,21.333,21.333v0.001
	c0,11.782-9.551,21.333-21.333,21.333H21.333C9.551,149.334,0,139.783,0,128.001V128C0,116.218,9.551,106.667,21.333,106.667z"/>
<path style="fill:#F49E02;" d="M64,0h170.664c11.782,0,21.333,9.551,21.333,21.333v0.001c0,11.782-9.551,21.333-21.333,21.333H64
	c-11.782,0-21.333-9.551-21.333-21.333v-0.001C42.667,9.551,52.218,0,64,0z"/>
<path style="fill:#F5980C;" d="M202.667,170.667c-5.891,0-10.667,4.775-10.667,10.666c0,0,0,0,0,0.001v245.333
	c0,11.782-9.551,21.333-21.333,21.333H53.334c-5.891,0-10.667,4.776-10.667,10.667c0,5.891,4.776,10.667,10.667,10.667h117.333
	c23.564,0,42.666-19.103,42.667-42.667V181.334C213.334,175.443,208.559,170.667,202.667,170.667
	C202.667,170.667,202.667,170.667,202.667,170.667z"/>
<g>
	<path style="fill:#F9CA75;" d="M63.999,170.667L63.999,170.667c23.563,0,42.665,19.103,42.665,42.667v63.996
		c0,23.564-19.102,42.667-42.665,42.667l0,0c-23.563,0-42.665-19.103-42.665-42.667v-63.996
		C21.334,189.77,40.436,170.667,63.999,170.667z"/>
	<circle style="fill:#F9CA75;" cx="63.997" cy="383.997" r="42.667"/>
</g>
<path style="fill:#E76A0D;" d="M298.67,127.997L298.67,127.997c11.783,0,21.334,9.551,21.334,21.333v277.334
	c0,11.782-9.551,21.333-21.333,21.333h-0.001c-11.782,0-21.333-9.551-21.333-21.333V149.33
	C277.337,137.548,286.888,127.997,298.67,127.997z"/>
<path style="fill:#DCCDEE;" d="M286.343,152.649l24.649-49.298C316.916,91.502,320,78.437,320,65.189V21.334h106.667v43.856
	c0,13.248,3.084,26.313,9.009,38.162l24.649,49.298c5.924,11.849,9.009,24.915,9.009,38.162v235.856
	c0,23.564-19.103,42.667-42.667,42.667l0,0H320c-23.564,0-42.667-19.103-42.667-42.667v0V190.811
	C277.334,177.564,280.418,164.498,286.343,152.649z"/>
<path style="fill:#C9B1D9;" d="M405.334,21.334h-64c-11.782-0.005-21.337,9.543-21.342,21.325S329.535,63.996,341.317,64
	c0.005,0,0.011,0,0.016,0h10.47c15.073,0,28.432,7.212,40.187,16.646c9.194,7.369,22.621,5.889,29.99-3.305
	c3.034-3.785,4.687-8.491,4.687-13.341V42.667C426.667,30.885,417.116,21.334,405.334,21.334L405.334,21.334z"/>
<path style="fill:#D80E70;" d="M320,0h106.664c11.782,0,21.333,9.551,21.333,21.333v0.001c0,11.782-9.551,21.333-21.333,21.333H320
	c-11.782,0-21.333-9.551-21.333-21.333v-0.001C298.667,9.551,308.218,0,320,0z"/>
<path style="fill:#B60361;" d="M405.33,0h21.334c11.782,0,21.333,9.551,21.333,21.333v0.001c0,11.782-9.551,21.333-21.333,21.333
	H405.33c-11.782,0-21.333-9.551-21.333-21.333v-0.001C383.997,9.551,393.548,0,405.33,0z"/>
<path style="fill:#CAB3DA;" d="M460.443,452.466c-3.553-2.8-7.92-4.368-12.443-4.466H298.667c-4.522,0.098-8.89,1.666-12.443,4.466
	c8.001,10.596,20.499,16.837,33.776,16.867h106.667C439.944,469.303,452.442,463.062,460.443,452.466z"/>
<path style="fill:#C9B1D9;" d="M426.662,170.667L426.662,170.667c23.563,0,42.665,19.103,42.665,42.667V384
	c0,23.564-19.102,42.667-42.665,42.667h0c-23.563,0-42.665-19.103-42.665-42.667V213.334
	C383.997,189.77,403.099,170.667,426.662,170.667z"/>
<g>
	<path style="fill:#EEE6F7;" d="M320,170.667L320,170.667c11.783,0,21.334,9.551,21.334,21.333v128.004
		c0,11.782-9.551,21.333-21.333,21.333H320c-11.782,0-21.333-9.551-21.333-21.333V192C298.667,180.218,308.218,170.667,320,170.667z
		"/>
	<path style="fill:#EEE6F7;" d="M320,362.667L320,362.667c11.783,0,21.334,9.551,21.334,21.333v21.334
		c0,11.782-9.551,21.333-21.333,21.333H320c-11.782,0-21.333-9.551-21.333-21.333V384C298.667,372.218,308.218,362.667,320,362.667z
		"/>
</g>
<g>
</g>
<g>
</g>
<g>
</g>
<g>
</g>
<g>
</g>
<g>
</g>
<g>
</g>
<g>
</g>
<g>
</g>
<g>
</g>
<g>
</g>
<g>
</g>
<g>
</g>
<g>
</g>
<g>
</g>
</svg>
