<svg id="Capa_1" enable-background="new 0 0 512 512" height="512" viewBox="0 0 512 512" width="512" xmlns="http://www.w3.org/2000/svg"><g><g><path d="m464.419 296.081h-64.129c-4.427 0-8.016-3.589-8.016-8.016v-120.242c0-4.427 3.589-8.016 8.016-8.016h64.129c4.427 0 8.016 3.589 8.016 8.016v120.242c0 4.427-3.588 8.016-8.016 8.016z" fill="#ffe07d"/><path d="m352.194 296.081h-80.161c-4.427 0-8.016-3.589-8.016-8.016v-216.436c0-4.427 3.589-8.016 8.016-8.016h80.161c4.427 0 8.016 3.589 8.016 8.016v216.435c0 4.428-3.589 8.017-8.016 8.017z" fill="#ccf49f"/><path d="m312.113 272.032c-13.282 0-24.048-10.767-24.048-24.048v-184.371h-16.032c-4.427 0-8.016 3.589-8.016 8.016v216.435c0 4.427 3.589 8.016 8.016 8.016h80.161c4.427 0 8.016-3.589 8.016-8.016v-16.032z" fill="#b3e59f"/><path d="m223.936 95.677h-48.097v200.403h48.097c4.427 0 8.016-3.589 8.016-8.016v-184.371c0-4.426-3.589-8.016-8.016-8.016z" fill="#ff8086"/><path d="m215.919 272.032c-13.282 0-24.048-10.767-24.048-24.048v-152.307h-16.032c-4.427 0-8.016 3.589-8.016 8.016v184.371c0 4.427 3.589 8.016 8.016 8.016h48.097c4.427 0 8.016-3.589 8.016-8.016v-16.032z" fill="#e5646e"/><circle cx="119.726" cy="424.339" fill="#5d5360" r="24.048"/><circle cx="480.452" cy="424.339" fill="#5d5360" r="24.048"/><path d="m440.371 272.032c-13.282 0-24.048-10.767-24.048-24.048v-88.177h-16.033c-4.427 0-8.016 3.589-8.016 8.016v120.242c0 4.427 3.589 8.016 8.016 8.016h64.129c4.427 0 8.016-3.589 8.016-8.016v-16.032h-32.064z" fill="#ffd064"/></g><g><path d="m472.436 335.646c21.816 0 39.564-17.749 39.564-39.565v-168.339c0-4.143-3.358-7.5-7.5-7.5h-136.791v-48.613c0-8.556-6.96-15.516-15.516-15.516h-80.161c-8.556 0-15.516 6.96-15.516 15.516v48.613h-17.064v-16.549c0-8.556-6.96-15.516-15.516-15.516h-48.097c-8.556 0-15.516 6.96-15.516 15.516v16.549h-82.363l-7.722-21.764c-5.59-15.75-20.574-26.333-37.287-26.333h-25.451c-4.142 0-7.5 3.357-7.5 7.5 0 4.142 3.358 7.5 7.5 7.5h25.451c10.376 0 19.68 6.57 23.15 16.35l73.031 205.816c4.447 12.531 14.842 21.784 27.321 25.046l-28.941 59.407c-2.492-.635-5.1-.975-7.787-.975-17.396 0-31.548 14.153-31.548 31.549s14.152 31.548 31.548 31.548c14.812 0 27.265-10.263 30.641-24.048h299.445c3.375 13.786 15.829 24.048 30.64 24.048 17.396 0 31.548-14.153 31.548-31.548 0-17.396-14.152-31.549-31.548-31.549-14.812 0-27.265 10.263-30.64 24.049h-299.445c-1.536-6.274-4.951-11.817-9.616-15.996l31.761-65.197h299.925zm-352.71 105.241c-9.125 0-16.548-7.423-16.548-16.548s7.423-16.549 16.548-16.549 16.549 7.424 16.549 16.549-7.424 16.548-16.549 16.548zm360.726-33.097c9.125 0 16.548 7.424 16.548 16.549s-7.423 16.548-16.548 16.548-16.548-7.423-16.548-16.548 7.423-16.549 16.548-16.549zm-208.936-336.161c0-.284.231-.516.516-.516h80.161c.285 0 .516.232.516.516v48.613h-81.193zm0 63.613h81.193v152.822c0 .285-.231.516-.516.516h-80.161c-.285 0-.516-.231-.516-.516zm-96.193-31.549c0-.284.231-.516.516-.516h48.097c.285 0 .516.231.516.516v16.549h-49.129zm-32.053 200.602-59.987-169.053h141.168v152.822c0 .285-.231.516-.516.516h-48.097c-.285 0-.516-.231-.516-.516v-128.254c0-4.142-3.358-7.5-7.5-7.5s-7.5 3.358-7.5 7.5v128.255c0 8.556 6.96 15.516 15.516 15.516h48.097c8.556 0 15.516-6.96 15.516-15.516v-152.823h17.064v152.822c0 8.556 6.96 15.516 15.516 15.516h80.161c8.556 0 15.516-6.96 15.516-15.516v-152.822h129.292v160.838c0 13.545-11.02 24.565-24.564 24.565h-306.016c-10.377.001-19.681-6.57-23.15-16.35z"/><path d="m400.291 303.581h64.129c8.556 0 15.516-6.96 15.516-15.516v-16.033c0-4.142-3.358-7.5-7.5-7.5s-7.5 3.358-7.5 7.5v16.033c0 .285-.231.516-.516.516h-64.129c-.285 0-.516-.231-.516-.516v-120.243c0-.284.231-.516.516-.516h64.129c.285 0 .516.231.516.516v72.144c0 4.143 3.358 7.5 7.5 7.5s7.5-3.357 7.5-7.5v-72.144c0-8.556-6.96-15.516-15.516-15.516h-64.129c-8.556 0-15.516 6.96-15.516 15.516v120.242c-.001 8.556 6.96 15.517 15.516 15.517z"/></g></g></svg>