<?xml version="1.0" standalone="no"?>
<!DOCTYPE svg PUBLIC "-//W3C//DTD SVG 20010904//EN"
 "http://www.w3.org/TR/2001/REC-SVG-20010904/DTD/svg10.dtd">
<svg version="1.0" xmlns="http://www.w3.org/2000/svg"
 width="512.000000pt" height="512.000000pt" viewBox="0 0 512.000000 512.000000"
 preserveAspectRatio="xMidYMid meet">

<g transform="translate(0.000000,512.000000) scale(0.100000,-0.100000)"
fill="#000000" stroke="none">
<path d="M3753 4995 c-9 -25 4 -30 79 -28 75 2 108 9 108 23 0 13 -40 20 -113
20 -52 0 -69 -4 -74 -15z"/>
<path d="M4245 5002 l-29 -7 42 -19 c32 -15 49 -17 74 -10 50 15 43 39 -12 41
-25 0 -58 -2 -75 -5z"/>
<path d="M4270 4920 c-19 -19 -19 -22 -5 -50 19 -37 32 -38 46 -3 21 57 -4 90
-41 53z"/>
<path d="M3732 4871 c-13 -37 -16 -94 -5 -104 3 -4 12 -2 20 4 14 12 16 67 4
109 -7 25 -7 25 -19 -9z"/>
<path d="M3887 4773 c-11 -10 -8 -131 3 -138 9 -6 14 7 25 76 8 51 -7 84 -28
62z"/>
<path d="M3672 4624 c-14 -28 -24 -206 -12 -224 9 -13 11 -13 19 -1 14 22 25
221 13 233 -7 7 -13 4 -20 -8z"/>
<path d="M3826 4519 c-3 -17 -6 -65 -6 -106 0 -66 2 -74 15 -63 11 9 15 35 15
106 0 93 -12 123 -24 63z"/>
<path d="M1462 4393 c-6 -49 -17 -125 -23 -169 -15 -99 -10 -116 29 -108 35 7
46 -12 32 -53 -6 -16 -6 -41 -2 -58 7 -24 14 -31 39 -33 40 -4 63 27 63 86 0
52 18 63 56 33 36 -28 64 -14 64 34 0 24 6 37 20 45 31 17 26 64 -12 106 -64
71 -137 133 -184 157 -17 9 -34 23 -37 32 -4 8 -12 15 -20 15 -9 0 -17 -26
-25 -87z"/>
<path d="M3606 4324 c-15 -38 -18 -124 -6 -139 22 -26 30 -6 30 76 0 74 -10
100 -24 63z"/>
<path d="M690 4295 c0 -8 11 -27 25 -42 14 -15 48 -55 75 -88 82 -96 148 -157
170 -153 8 2 18 17 23 33 5 17 13 44 18 60 5 17 12 52 15 78 8 57 -7 63 -37
13 -22 -38 -65 -54 -97 -37 -10 5 -52 42 -93 80 -73 70 -99 85 -99 56z"/>
<path d="M3756 4134 c-9 -24 -7 -72 3 -78 12 -8 21 18 21 60 0 35 -13 46 -24
18z"/>
<path d="M1870 4082 c0 -18 29 -33 57 -30 46 5 35 32 -14 36 -24 2 -43 -1 -43
-6z"/>
<path d="M1986 4022 c-3 -5 0 -14 7 -20 31 -24 107 -18 81 8 -15 15 -80 24
-88 12z"/>
<path d="M610 4008 c-72 -20 -74 -49 -7 -95 40 -26 48 -28 149 -28 120 0 136
7 121 52 -8 22 -24 34 -74 55 -67 29 -127 34 -189 16z"/>
<path d="M3536 4004 c-9 -24 -7 -92 3 -99 5 -3 14 10 21 29 16 51 -6 117 -24
70z"/>
<path d="M1224 3949 c-9 -14 14 -29 46 -29 30 0 44 -9 53 -32 3 -10 15 -18 25
-18 23 0 42 -19 42 -41 0 -23 20 -35 30 -18 13 20 -16 66 -45 73 -18 5 -25 13
-25 31 0 18 -8 28 -26 35 -34 13 -91 13 -100 -1z"/>
<path d="M2097 3954 c-8 -8 20 -64 32 -64 11 0 41 34 41 47 0 19 -58 32 -73
17z"/>
<path d="M1560 3925 c0 -15 6 -25 14 -25 23 0 28 17 10 34 -21 21 -24 20 -24
-9z"/>
<path d="M2570 3900 c0 -18 8 -33 25 -44 40 -26 22 -45 -40 -43 -49 2 -56 -1
-102 -43 -89 -80 -81 -136 11 -86 49 26 59 28 117 22 35 -4 82 -12 104 -17 50
-14 116 -59 134 -93 19 -35 76 -38 85 -3 14 54 7 77 -29 92 -61 26 -72 76 -26
116 29 26 50 74 37 86 -4 4 -26 -14 -49 -39 -68 -75 -118 -77 -152 -9 -17 33
-34 49 -69 66 l-46 22 0 -27z"/>
<path d="M1038 3853 c-7 -16 -23 -29 -35 -31 -17 -3 -25 -14 -33 -44 -14 -50
-7 -76 15 -58 8 7 15 22 15 35 0 23 28 55 48 55 7 0 12 6 12 13 0 6 3 22 6 35
9 31 -12 28 -28 -5z"/>
<path d="M3686 3858 c-9 -34 -7 -101 3 -117 15 -24 32 24 29 81 -3 54 -21 75
-32 36z"/>
<path d="M1620 3851 c0 -10 7 -24 16 -32 13 -10 17 -10 24 1 11 18 -6 50 -25
50 -8 0 -15 -8 -15 -19z"/>
<path d="M2280 3825 c-18 -21 -5 -47 22 -43 26 3 37 36 16 49 -18 12 -24 11
-38 -6z"/>
<path d="M2047 3804 c-8 -8 3 -34 14 -34 5 0 9 9 9 20 0 19 -11 26 -23 14z"/>
<path d="M1688 3785 c-3 -3 -2 -22 1 -43 7 -41 34 -52 39 -15 5 36 -22 75 -40
58z"/>
<path d="M1457 3773 c-13 -12 -7 -44 9 -50 21 -8 35 16 23 39 -10 19 -21 23
-32 11z"/>
<path d="M2218 3708 c-5 -44 12 -71 24 -40 12 32 9 82 -6 82 -9 0 -15 -15 -18
-42z"/>
<path d="M1980 3691 c-5 -11 -10 -31 -10 -45 0 -17 -8 -30 -26 -39 l-25 -13
41 -14 c50 -16 57 -9 58 54 2 71 -16 98 -38 57z"/>
<path d="M3475 3699 c-11 -30 -10 -212 1 -216 16 -5 30 205 15 220 -7 7 -12 6
-16 -4z"/>
<path d="M1517 3684 c-4 -4 -7 -17 -7 -30 0 -40 -11 -54 -43 -54 -19 0 -27 -4
-21 -9 11 -11 164 -21 164 -11 0 4 -10 15 -23 23 -13 8 -28 30 -33 48 -9 32
-24 46 -37 33z"/>
<path d="M1755 3660 c-3 -10 0 -28 7 -40 15 -24 78 -46 104 -36 30 12 11 19
-68 25 -5 1 -8 14 -8 30 0 34 -26 49 -35 21z"/>
<path d="M964 3599 c-10 -17 13 -36 27 -22 12 12 4 33 -11 33 -5 0 -12 -5 -16
-11z"/>
<path d="M2166 3594 c-5 -13 0 -15 32 -10 20 3 40 5 45 6 4 0 7 5 7 10 0 17
-77 12 -84 -6z"/>
<path d="M3625 3529 c-4 -17 -4 -52 1 -77 6 -41 8 -44 15 -22 10 36 11 130 0
130 -5 0 -12 -14 -16 -31z"/>
<path d="M3416 3391 c-4 -6 -9 -30 -12 -54 -2 -23 -7 -66 -10 -94 -6 -51 -5
-53 19 -53 30 0 37 14 31 66 -3 21 -5 56 -5 78 1 44 -12 75 -23 57z"/>
<path d="M1055 3381 c-172 -6 -182 -7 -225 -33 -25 -14 -62 -30 -83 -33 -20
-4 -45 -17 -55 -30 -9 -12 -27 -27 -40 -34 -12 -6 -25 -24 -28 -38 -4 -15 -17
-42 -30 -60 -16 -24 -24 -56 -29 -109 -9 -93 6 -256 28 -304 23 -52 26 -67 36
-171 6 -54 18 -113 30 -139 11 -25 25 -85 32 -135 7 -53 21 -109 35 -136 14
-28 26 -77 32 -131 6 -50 20 -108 35 -144 14 -32 28 -88 32 -124 4 -35 17 -88
31 -117 13 -29 28 -83 34 -120 7 -41 21 -82 35 -103 15 -23 27 -60 34 -108 7
-54 16 -80 35 -103 14 -17 26 -38 26 -47 0 -15 44 -65 120 -136 14 -13 41 -27
60 -31 19 -4 54 -18 77 -31 30 -17 63 -26 120 -30 43 -3 98 -12 123 -20 54
-17 238 -19 560 -5 124 5 358 14 520 20 283 10 339 16 405 46 17 7 51 16 77
20 37 6 55 15 81 44 32 35 34 42 45 155 6 68 18 128 26 141 16 25 31 102 41
214 4 42 15 92 26 112 11 22 24 80 30 136 6 54 23 134 36 178 13 44 29 125 34
180 6 61 15 105 24 115 8 9 15 26 15 38 0 18 -6 22 -32 22 -18 0 -411 0 -873
1 -924 2 -874 5 -820 -59 19 -22 25 -41 25 -75 0 -25 4 -48 8 -51 4 -2 305 -7
668 -9 452 -3 667 -8 681 -15 11 -7 23 -22 27 -35 11 -45 -11 -270 -33 -335
-12 -34 -26 -111 -32 -170 -7 -74 -18 -124 -35 -162 -13 -30 -28 -80 -33 -110
-7 -42 -15 -59 -37 -77 -16 -12 -43 -34 -61 -48 -47 -38 -99 -43 -563 -55
-228 -5 -443 -13 -477 -16 -59 -6 -184 2 -417 28 -84 9 -103 15 -130 38 -17
14 -39 30 -49 33 -9 4 -21 17 -26 29 -5 13 -18 31 -29 41 -11 10 -26 42 -33
70 -6 29 -22 70 -34 92 -13 22 -26 67 -30 100 -4 33 -17 79 -30 103 -15 26
-29 75 -35 125 -7 47 -21 101 -35 127 -14 27 -28 78 -34 127 -6 46 -20 102
-32 125 -13 25 -26 76 -31 122 -5 47 -19 101 -32 131 -15 31 -28 87 -35 145
-7 52 -21 114 -33 140 -18 37 -22 69 -25 190 l-5 145 49 63 c54 70 45 66 238
104 l120 23 860 0 c724 0 867 -2 904 -14 43 -15 43 -15 65 14 22 30 55 118 56
148 0 16 -16 17 -192 17 -106 0 -519 2 -918 4 -399 2 -806 1 -905 -3z"/>
<path d="M3554 3279 c-4 -7 -8 -29 -10 -49 -3 -41 17 -60 41 -40 10 8 13 56 6
93 -2 11 -29 8 -37 -4z"/>
<path d="M1760 650 c0 -5 12 -10 26 -10 14 0 23 4 19 10 -3 6 -15 10 -26 10
-10 0 -19 -4 -19 -10z"/>
<path d="M2758 653 c7 -3 16 -2 19 1 4 3 -2 6 -13 5 -11 0 -14 -3 -6 -6z"/>
<path d="M2655 622 c-50 -6 -69 -35 -45 -72 8 -12 12 -11 32 7 13 11 33 24 46
28 24 7 30 30 10 37 -7 2 -26 2 -43 0z"/>
<path d="M1490 605 c-14 -17 -7 -45 13 -45 19 0 37 21 37 42 0 22 -32 24 -50
3z"/>
<path d="M1820 610 c-13 -9 -11 -13 9 -31 31 -26 56 -21 56 11 0 19 -6 26 -25
28 -14 1 -32 -2 -40 -8z"/>
<path d="M2910 603 c0 -13 12 -23 36 -32 40 -14 58 -5 52 25 -2 14 -14 20 -46
22 -35 3 -42 0 -42 -15z"/>
<path d="M1437 543 c-9 -8 -9 -160 -1 -203 5 -21 15 -35 30 -41 16 -5 24 -17
24 -32 0 -34 19 -47 67 -47 56 0 59 25 4 40 -26 7 -41 17 -44 31 -4 14 -11 20
-21 16 -11 -5 -18 2 -22 21 -3 15 -10 44 -15 65 -7 24 -6 50 1 75 14 51 13 82
-3 82 -8 0 -17 -3 -20 -7z"/>
<path d="M1912 529 c1 -12 9 -24 16 -27 9 -3 13 3 10 19 -1 12 -9 24 -16 27
-9 3 -13 -3 -10 -19z"/>
<path d="M3026 508 c5 -23 7 -56 6 -73 -8 -117 -7 -130 10 -133 16 -3 17 8 15
120 -2 111 -4 123 -21 126 -16 4 -17 0 -10 -40z"/>
<path d="M1917 393 c-2 -5 -7 -26 -11 -48 l-6 -40 24 29 c14 16 21 36 19 47
-5 19 -18 25 -26 12z"/>
<path d="M2556 391 c-14 -22 4 -83 25 -88 10 -3 19 -10 20 -17 3 -52 18 -71
49 -61 20 6 20 8 6 28 -9 12 -21 32 -26 45 -5 12 -17 25 -25 28 -8 4 -15 14
-15 23 0 26 -25 57 -34 42z"/>
<path d="M1865 305 c-3 -8 -7 -22 -10 -30 -2 -9 -18 -18 -35 -21 -30 -7 -47
-20 -37 -31 3 -3 24 -2 46 2 36 6 42 11 51 43 5 21 10 40 10 45 0 13 -21 7
-25 -8z"/>
<path d="M2963 263 c-7 -2 -13 -13 -13 -24 0 -14 7 -19 26 -19 20 0 25 4 22
22 -3 23 -15 30 -35 21z"/>
<path d="M2770 180 c0 -5 18 -10 40 -10 22 0 40 5 40 10 0 6 -18 10 -40 10
-22 0 -40 -4 -40 -10z"/>
</g>
</svg>
